/* XPM */
static char * blocks_xpm[] = {
"32 32 300 2",
"  	c None",
". 	c #903DBE",
"+ 	c #923DC1",
"@ 	c #9440C3",
"# 	c #9744C6",
"$ 	c #8F3CBE",
"% 	c #9543C4",
"& 	c #A95DD2",
"* 	c #C177E3",
"= 	c #D28CEF",
"- 	c #E19FFB",
"; 	c #EEA5FF",
"> 	c #F2A8FF",
", 	c #9028B4",
"' 	c #8E3DBC",
") 	c #9545C3",
"! 	c #AD64D3",
"~ 	c #D393F0",
"{ 	c #EBA6FF",
"] 	c #EE9FFF",
"^ 	c #EA8AFF",
"/ 	c #E46EFF",
"( 	c #E260FF",
"_ 	c #E052FF",
": 	c #E04FFF",
"< 	c #FCB4FF",
"[ 	c #9824B5",
"} 	c #8F3DBD",
"| 	c #994BC5",
"1 	c #BF78E1",
"2 	c #E4A0FD",
"3 	c #EB98FF",
"4 	c #E475FF",
"5 	c #DE4BFF",
"6 	c #C43FFF",
"7 	c #964EF4",
"8 	c #755AEB",
"9 	c #5365E2",
"0 	c #2D6ED9",
"a 	c #1E6ED6",
"b 	c #96C1F1",
"c 	c #124D95",
"d 	c #B871DB",
"e 	c #E7A0FF",
"f 	c #E98BFF",
"g 	c #DE54FF",
"h 	c #D13CFF",
"i 	c #8A53EF",
"j 	c #4569DF",
"k 	c #2573D6",
"l 	c #2871D7",
"m 	c #2A6ED7",
"n 	c #2B6CD6",
"o 	c #2C69D6",
"p 	c #2765D7",
"q 	c #9CB9F1",
"r 	c #184495",
"s 	c #8E3DBB",
"t 	c #A458CD",
"u 	c #DE9AF9",
"v 	c #E88CFF",
"w 	c #C540FF",
"x 	c #685FE8",
"y 	c #2474D6",
"z 	c #2971D7",
"A 	c #2C6CD7",
"B 	c #3170D9",
"C 	c #4490E5",
"D 	c #54AEF1",
"E 	c #60C6FB",
"F 	c #6CDDFF",
"G 	c #6BE2FF",
"H 	c #C1FCFF",
"I 	c #499EB8",
"J 	c #913DC0",
"K 	c #BC78DE",
"L 	c #EBA1FF",
"M 	c #DF62FF",
"N 	c #D03DFF",
"O 	c #755BEA",
"P 	c #2B70D7",
"Q 	c #2D6AD6",
"R 	c #5CBEF8",
"S 	c #71E4FF",
"T 	c #70E1FF",
"U 	c #6EDFFF",
"V 	c #6DDDFF",
"W 	c #6CDCFF",
"X 	c #67DBFF",
"Y 	c #BEF5FF",
"Z 	c #4698C6",
"` 	c #9644C4",
" .	c #D494F0",
"..	c #EA93FF",
"+.	c #DC46FF",
"@.	c #A34BF6",
"#.	c #2E71D9",
"$.	c #2A70D7",
"%.	c #4796E9",
"&.	c #69D5FF",
"*.	c #70E2FF",
"=.	c #6EDEFF",
"-.	c #6DDCFF",
";.	c #6AD9E0",
">.	c #69D97F",
",.	c #65D730",
"'.	c #64D509",
").	c #5ED400",
"!.	c #B8F173",
"~.	c #3F9400",
"{.	c #9844C6",
"].	c #D694F2",
"^.	c #E57DFF",
"/.	c #DB38FF",
"(.	c #6860E8",
"_.	c #2673D7",
":.	c #2C6DD7",
"<.	c #3E88E2",
"[.	c #69D6FF",
"}.	c #6FE1FF",
"|.	c #6BDBF5",
"1.	c #67D76B",
"2.	c #61D400",
"3.	c #5DD400",
"4.	c #5AD300",
"5.	c #57D200",
"6.	c #53D100",
"7.	c #AEEF7D",
"8.	c #369100",
"9.	c #9544C3",
"0.	c #E09BFB",
"a.	c #446ADF",
"b.	c #3171D9",
"c.	c #70E3FF",
"d.	c #6DDEFF",
"e.	c #67D758",
"f.	c #62D500",
"g.	c #58D200",
"h.	c #6CD800",
"i.	c #A7E826",
"j.	c #D6F545",
"k.	c #F9FF59",
"l.	c #FFFF63",
"m.	c #FFFFBF",
"n.	c #BEB744",
"o.	c #456ADF",
"p.	c #3678DD",
"q.	c #65CEFD",
"r.	c #6FE0FF",
"s.	c #69D87F",
"t.	c #56D200",
"u.	c #9BE41E",
"v.	c #EEFB53",
"w.	c #FFFF6A",
"x.	c #FFFF69",
"y.	c #FFFF67",
"z.	c #FFFF62",
"A.	c #B5BA44",
"B.	c #2A6FD7",
"C.	c #3A7FDF",
"D.	c #65D71A",
"E.	c #60D400",
"F.	c #FAFF5B",
"G.	c #FFE13E",
"H.	c #FFC620",
"I.	c #FFB20A",
"J.	c #FF9C00",
"K.	c #FFD580",
"L.	c #B36C00",
"M.	c #8B3BB8",
"N.	c #3A7FE0",
"O.	c #6AD9E4",
"P.	c #63D500",
"Q.	c #5DD300",
"R.	c #E3F94D",
"S.	c #FFFD5B",
"T.	c #FFC520",
"U.	c #FF9F00",
"V.	c #FFA500",
"W.	c #FFAA00",
"X.	c #FFAD00",
"Y.	c #FFE485",
"Z.	c #B57B00",
"`.	c #316FD9",
" +	c #69D9A5",
".+	c #5BD300",
"++	c #90E217",
"@+	c #FFFC5B",
"#+	c #FFA100",
"$+	c #FFA900",
"%+	c #FFB100",
"&+	c #F67902",
"*+	c #EB4D09",
"=+	c #E42B0B",
"-+	c #DB000D",
";+	c #F38695",
">+	c #98000A",
",+	c #DE9BF9",
"'+	c #3171DA",
")+	c #65CEFE",
"!+	c #9AE41F",
"~+	c #FFE846",
"{+	c #FFA600",
"]+	c #FFA800",
"^+	c #F16406",
"/+	c #DF1411",
"(+	c #DE1325",
"_+	c #E63D4A",
":+	c #EB5A63",
"<+	c #F06E74",
"[+	c #F47175",
"}+	c #9B080C",
"|+	c #883BB5",
"1+	c #B871DC",
"2+	c #E98CFF",
"3+	c #2E71D8",
"4+	c #2D6DD7",
"5+	c #6BDAE0",
"6+	c #FFCC27",
"7+	c #FFA200",
"8+	c #FFAE00",
"9+	c #F77B03",
"0+	c #DF1512",
"a+	c #DF1525",
"b+	c #EB565E",
"c+	c #E86267",
"d+	c #D03C3E",
"e+	c #B91416",
"f+	c #AC0000",
"g+	c #A80000",
"h+	c #755BEB",
"i+	c #65D71B",
"j+	c #FFA400",
"k+	c #FFB200",
"l+	c #EB4F0B",
"m+	c #DC0114",
"n+	c #E7424C",
"o+	c #E35C5F",
"p+	c #B91516",
"q+	c #A70000",
"r+	c #9C0000",
"s+	c #820000",
"t+	c #873AB3",
"u+	c #2D6AD7",
"v+	c #FFA700",
"w+	c #E42C0F",
"x+	c #DE0B1A",
"y+	c #E8585F",
"z+	c #C72D2F",
"A+	c #9544C2",
"B+	c #DF1321",
"C+	c #E95A5F",
"D+	c #B30E10",
"E+	c #970000",
"F+	c #9BE41F",
"G+	c #B40F10",
"H+	c #830000",
"I+	c #883AB4",
"J+	c #F77B04",
"K+	c #850000",
"L+	c #9643C4",
"M+	c #980000",
"N+	c #A95ED2",
"O+	c #C440FF",
"P+	c #EDFB53",
"Q+	c #8037AA",
"R+	c #C178E3",
"S+	c #E882FF",
"T+	c #964EF3",
"U+	c #6BD9E1",
"V+	c #EA565E",
"W+	c #870000",
"X+	c #873AB4",
"Y+	c #D28CF0",
"Z+	c #50A6EF",
"`+	c #5ED300",
" @	c #8C3BB9",
".@	c #E1A0FB",
"+@	c #2C6CD6",
"@@	c #61C6FB",
"#@	c #A30000",
"$@	c #2D6FD9",
"%@	c #FFFF68",
"&@	c #890000",
"*@	c #2765D6",
"=@	c #DA000D",
"-@	c #AB0000",
";@	c #9340C3",
">@	c #9CB8F1",
",@	c #C1FBFF",
"'@	c #9B44CB",
")@	c #9028B3",
"!@	c #124C95",
"~@	c #1E5099",
"{@	c #499DB8",
"]@	c #BEB745",
"^@	c #B5B039",
"/@	c #B36D00",
"(@	c #B47200",
"_@	c #9B090C",
"                                                  . . + + @ #   ",
"                                          $ % & * = - ; ; > ,   ",
"                                    ' ) ! ~ { ] ^ / ( _ : < [   ",
"                                } | 1 2 3 4 5 6 7 8 9 0 a b c   ",
"                              ) d e f g h i j k l m n o p q r   ",
"                          s t u v g w x y z A B C D E F G H I   ",
"                        J K L M N O y P Q C R S T U V W X Y Z   ",
"                      `  ...+.@.#.$.Q %.&.*.=.-.;.>.,.'.).!.~.  ",
"                    {.].^./.(._.:.<.[.}.V |.1.'.2.3.4.5.6.7.8.  ",
"                  9.0.^.N a.z b.D c.d.|.e.f.).g.h.i.j.k.l.m.n.  ",
"                ` ].^.h o.$.p.q.r.-.s.f.3.t.u.v.w.x.x.y.z.m.A.  ",
"              J  .^.N o.B.C.d.=.|.D.E.g.u.F.x.x.l.G.H.I.J.K.L.  ",
"            M.1 ../.a.$.N.V =.O.P.Q.h.R.x.x.S.T.U.V.W.X.X.Y.Z.  ",
"            t L +.(.z `.d.=. +f..+++l.x.@+T.#+$+%+&+*+=+-+;+>+  ",
"          ) ,+M @._.'+)+U O.f.4.!+w.x.~+{+]+{+^+/+(+_+:+<+[+}+  ",
"        |+1+2+N 3+4+D r.5+P..+!+w.w.6+7+8+9+0+a+b+c+d+e+f+g+f+  ",
"        | e g h+$.<.c.-.i+Q.++w.w.T.j+k+l+m+n+o+p+q+r+s+        ",
"      t+1 f w y u+[.=.>.E.h.l.x.6+j+v+w+x+y+z+q+s+              ",
"      A+2 g x P %.}.|.f.g.R.x.~+7+k+w+B+C+D+E+                  ",
"      ! 3 h y Q &.V e.3.F+x.@+{+8+l+x+C+G+H+                    ",
"    I+~ 4 i z C *.|.f.t.F.x.T.]+J+m+y+D+K+                      ",
"    L+{ 5 j :.R =.1.).u.x.S.#+{+0+n+z+M+                        ",
"    N+] O+k B S -.'.g.P+x.T.$+^+a+o+q+                          ",
"  Q+R+S+T+l C }.U+2.h.w.l.U.%+/+V+p+W+                          ",
"  X+Y+/ 8 m Z+U >.`+i.x.G.V.&+(+c+q+                            ",
"   @.@( 9 +@@@d.,.4.j.x.H.W.*+_+d+#@                            ",
"  + ; _ $@o F W '.5.k.%@I.X.=+:+e+&@                            ",
"  + ; : a *@G X ).6.l.z.J.X.=@<+-@                              ",
"  ;@> < b >@,@Y !.7.m.m.K.Y.;+[+g+                              ",
"  '@)@[ !@~@{@Z ~.8.]@^@/@(@>+_@f+                              ",
"                                                                ",
"                                                                "};
