/* XPM */
static char * supershooter_xpm[] = {
"32 32 13 1",
" 	c None",
".	c #000000",
"+	c #F52E2E",
"@	c #EBEBEB",
"#	c #2BB500",
"$	c #EB0808",
"%	c #CEF7FF",
"&	c #E5FBFF",
"*	c #860000",
"=	c #B90000",
"-	c #D90000",
";	c #AEE0F8",
">	c #C1FBFF",
"                                ",
"             .....              ",
"             .++++.             ",
"             .+++++.            ",
"             .++++++.           ",
"             .++@@@+.           ",
"             .++@#@++.          ",
"             .++@@@++.          ",
"              .++++++.          ",
"   ...        .+++++++.         ",
"  .+++.       .+++++++.         ",
"  .+++.       .+++$$$$....      ",
"   .++.  ......$$$$$$$$$$$.     ",
"   .++...$$$$$$$$$$$$$...$$.    ",
"  ....$$$$$$$$$$$$$$$.%&&.$$.   ",
" .****==-$$$$$$$$$$$$.%&&&.$$.  ",
" .****==-$$$$$$$$$$$$.%%&&.--.  ",
"  ....---------------.;>%.--.   ",
"   .$$...-------------...--.    ",
"   .$$.  ......$$$$-------.     ",
"  .$$$.       .++++$$$....      ",
"  .$$$.       .+++++++.         ",
"   ...        .+++++++.         ",
"              .++++++.          ",
"             .++@@@++.          ",
"             .++@#@++.          ",
"             .++@@@+.           ",
"             .++++++.           ",
"             .+++++.            ",
"             .++++.             ",
"             .....              ",
"                                "};
